<mxfile host="65bd71144e">
    <diagram id="YD6RFlZg2_KDlZwBcC-1" name="Page-1">
        <mxGraphModel dx="1264" dy="1415" grid="1" gridSize="10" guides="1" tooltips="1" connect="1" arrows="1" fold="1" page="1" pageScale="1" pageWidth="850" pageHeight="1100" math="0" shadow="0">
            <root>
                <mxCell id="0"/>
                <mxCell id="1" parent="0"/>
                <mxCell id="5" value="1, 2, 3, 4" style="rounded=1;whiteSpace=wrap;html=1;fontSize=50;strokeColor=#000000;" vertex="1" parent="1">
                    <mxGeometry x="10" y="280" width="220" height="80" as="geometry"/>
                </mxCell>
                <mxCell id="6" value="5, 6" style="rounded=1;whiteSpace=wrap;html=1;fontSize=50;strokeColor=#000000;" vertex="1" parent="1">
                    <mxGeometry x="305" y="280" width="130" height="80" as="geometry"/>
                </mxCell>
                <mxCell id="7" value="E" style="text;html=1;strokeColor=none;fillColor=none;align=center;verticalAlign=middle;whiteSpace=wrap;rounded=0;fontSize=50;" vertex="1" parent="1">
                    <mxGeometry x="90" y="220" width="60" height="30" as="geometry"/>
                </mxCell>
                <mxCell id="8" value="E" style="text;html=1;strokeColor=none;fillColor=none;align=center;verticalAlign=middle;whiteSpace=wrap;rounded=0;fontSize=50;" vertex="1" parent="1">
                    <mxGeometry x="345" y="220" width="60" height="30" as="geometry"/>
                </mxCell>
                <mxCell id="9" value="" style="endArrow=none;html=1;fontSize=50;strokeWidth=3;strokeColor=#000000;" edge="1" parent="1">
                    <mxGeometry width="50" height="50" relative="1" as="geometry">
                        <mxPoint x="355" y="210" as="sourcePoint"/>
                        <mxPoint x="395" y="210" as="targetPoint"/>
                    </mxGeometry>
                </mxCell>
                <mxCell id="10" value="S" style="text;html=1;strokeColor=none;fillColor=none;align=center;verticalAlign=middle;whiteSpace=wrap;rounded=0;fontSize=50;" vertex="1" parent="1">
                    <mxGeometry x="210" y="20" width="60" height="30" as="geometry"/>
                </mxCell>
                <mxCell id="11" value="1, 2, 3, 4, 5, 6" style="rounded=1;whiteSpace=wrap;html=1;fontSize=50;strokeColor=#000000;" vertex="1" parent="1">
                    <mxGeometry x="60" y="80" width="360" height="80" as="geometry"/>
                </mxCell>
                <mxCell id="13" value="(6-Sided dice roll)" style="text;html=1;strokeColor=none;fillColor=none;align=center;verticalAlign=middle;whiteSpace=wrap;rounded=0;fontSize=20;" vertex="1" parent="1">
                    <mxGeometry x="115" y="50" width="270" height="30" as="geometry"/>
                </mxCell>
                <mxCell id="14" value="(Roll Less than 5)" style="text;html=1;strokeColor=none;fillColor=none;align=center;verticalAlign=middle;whiteSpace=wrap;rounded=0;fontSize=20;" vertex="1" parent="1">
                    <mxGeometry x="25" y="250" width="190" height="30" as="geometry"/>
                </mxCell>
                <mxCell id="15" value="NOT(Roll Less than 5)" style="text;html=1;strokeColor=none;fillColor=none;align=center;verticalAlign=middle;whiteSpace=wrap;rounded=0;fontSize=20;" vertex="1" parent="1">
                    <mxGeometry x="260" y="250" width="220" height="30" as="geometry"/>
                </mxCell>
                <mxCell id="19" style="edgeStyle=orthogonalEdgeStyle;html=1;exitX=0.5;exitY=1;exitDx=0;exitDy=0;entryX=0.5;entryY=0;entryDx=0;entryDy=0;fontSize=20;endArrow=open;endFill=0;endSize=15;" edge="1" parent="1" source="16" target="17">
                    <mxGeometry relative="1" as="geometry"/>
                </mxCell>
                <mxCell id="20" style="edgeStyle=orthogonalEdgeStyle;html=1;exitX=0.5;exitY=1;exitDx=0;exitDy=0;entryX=0.5;entryY=0;entryDx=0;entryDy=0;fontSize=20;endArrow=open;endFill=0;endSize=15;" edge="1" parent="1" source="16" target="18">
                    <mxGeometry relative="1" as="geometry"/>
                </mxCell>
                <mxCell id="16" value="Random&lt;br&gt;Experiment" style="ellipse;whiteSpace=wrap;html=1;aspect=fixed;fontSize=20;strokeColor=#000000;" vertex="1" parent="1">
                    <mxGeometry x="570" y="90" width="110" height="110" as="geometry"/>
                </mxCell>
                <mxCell id="17" value="2" style="rounded=1;whiteSpace=wrap;html=1;fontSize=50;strokeColor=#000000;" vertex="1" parent="1">
                    <mxGeometry x="540" y="250" width="60" height="80" as="geometry"/>
                </mxCell>
                <mxCell id="18" value="5" style="rounded=1;whiteSpace=wrap;html=1;fontSize=50;strokeColor=#000000;" vertex="1" parent="1">
                    <mxGeometry x="650" y="250" width="60" height="80" as="geometry"/>
                </mxCell>
                <mxCell id="21" value="s* in E" style="text;html=1;strokeColor=none;fillColor=none;align=center;verticalAlign=middle;whiteSpace=wrap;rounded=0;fontSize=20;" vertex="1" parent="1">
                    <mxGeometry x="530" y="330" width="80" height="30" as="geometry"/>
                </mxCell>
                <mxCell id="22" value="s* in ~E" style="text;html=1;strokeColor=none;fillColor=none;align=center;verticalAlign=middle;whiteSpace=wrap;rounded=0;fontSize=20;" vertex="1" parent="1">
                    <mxGeometry x="640" y="330" width="80" height="30" as="geometry"/>
                </mxCell>
            </root>
        </mxGraphModel>
    </diagram>
</mxfile>